# xmcd
#
# Track frame offsets:
#	150
#	19882
#	42239
#	61227
#	101142
#	124176
#	140100
#	158963
#	173070
#	196780
#
# Disc length: 2716 seconds
#
# Revision: 1
# Processed by: cddbd v1.5.2PL0 Copyright (c) Steve Scherf et al.
# Submitted via: audiograbber 1.83.01
#
DISCID=8a0a9a0a
DTITLE=Yacht - See Mystery Lights
DYEAR=2009
DGENRE=Dance
TTITLE0=Ring The Bell
TTITLE1=The Afterlife
TTITLE2=I'm In Love With a Ripper
TTITLE3=It's Boring/You Can Live Anywhere You Want
TTITLE4=Psychic City (Voodoo City)
TTITLE5=Summer Song
TTITLE6=We Have All We've Ever Wanted
TTITLE7=Don't Fight The Darkness
TTITLE8=I'm In Love With a Ripper (party mix)
TTITLE9=Psychic City (version)
EXTD=
EXTT0=
EXTT1=
EXTT2=
EXTT3=
EXTT4=
EXTT5=
EXTT6=
EXTT7=
EXTT8=
EXTT9=
PLAYORDER=
